PathFileType	4	(X/Y/Z)	RUN4																																																													
DataRate	CameraRate	NumFrames	NumMarkers	Units	OrigDataRate	OrigDataStartFrame	OrigNumFrames																																																									
15	15	6	21	mm	15	1	577																																																									
Frame#	Time	SpineBase			SpineMid			Neck			Head			ShoulderLeft			ElbowLeft			WristLeft			HandLeft			ShoulderRight			ElbowRight			WristRight			HandRight			HipLeft			KneeLeft			AnkleLeft			FootLeft			HipRight			KneeRight			AnkleRight			FootRight			SpineShoulder		
		X1	Y1	Z1	X2	Y2	Z2	X3	Y3	Z3	X4	Y4	Z4	X5	Y5	Z5	X6	Y6	Z6	X7	Y7	Z7	X8	Y8	Z8	X9	Y9	Z9	X10	Y10	Z10	X11	Y11	Z11	X12	Y12	Z12	X13	Y13	Z13	X14	Y14	Z14	X15	Y15	Z15	X16	Y16	Z16	X17	Y17	Z17	X18	Y18	Z18	X19	Y19	Z19	X20	Y20	Z20	X21	Y21	Z21
																																																																
1	0	120.382	722.6257	-3.85345	164.52	1024.99413	17.62915	221.457	1320.8703	40.05125	252.066	1450.983	24.70945	194.136	1221.2302	-128.88425	235.266	933.37746	-144.25405	270.871	648.1998	-125.16555	287.87	594.0105	-117.58765	252.137	1196.35	204.19985	244.262	933.67608	286.49048	373.479	724.0692	287.772	414.492	655.447	266.80741	157.401	731.8671	-75.82015	287.004	197.6829	-116.61315	276.71	474.6518	-215.44185	392.273	369.8796	-173.93715	155.01	720.4537	75.82015	147.015	323.529	65.69945	0	0	83.27275	172.419	-19.424	90.71395	204.894	1247.8237	34.26025
2	0.066666667	113.832	753.1794	-18.92675	162.462	1029.87571	17.13865	217.105	1316.6039	46.34455	246.896	1447.9052	38.13945	185.444	1232.3251	-121.50255	149.584	1003.30971	-166.34695	271.753	732.4336	-113.70175	284.287	645.6323	-125.06105	238.43	1190.4655	211.74625	228.951	922.7824	292.93577	340.806	713.4616	297.84391	381.483	640.4764	277.8493	151.452	771.3986	-92.09135	295.778	473.165	-206.35625	326.896	192.0192	-252.81055	458.376	116.1073	-189.81755	146.278	742.7845	61.87975	140.452	322.6492	73.81145	0.417	-0.322	83.23245	172.31	-18.629	94.03015	202.175	1246.3563	37.93705
3	0.133333333	158.201	710.4963	12.05975	166.21	1021.859366	29.42835	203.454	1314.7634	59.19515	232.973	1450.8792	55.58295	178.434	1229.9187	-121.00405	134.549	987.79955	-165.26295	268.616	709.3356	-145.96885	275.376	629.6538	-141.41045	195.181	1195.9974	233.66181	185.405	926.58195	297.37958	303.843	702.5342	310.353634	340.429	631.5493	291.2072	194.665	720.6333	-61.14435	281.344	436.8218	-265.42975	314.858	163.0098	-313.98565	439.896	100.8439	-222.18225	192.292	707.7024	92.56835	137.777	345.4983	80.52885	1.904	-0.318	81.43395	176.008	-19.855	91.11695	193.184	1242.8342	50.27045
4	0.2	154.134	711.1766	12.67325	165.608	1021.548127	30.02195	202.505	1315.2956	58.73775	221.286	1455.0839	69.54955	179.294	1228.3257	-120.42395	137.341	989.12095	-163.36335	263.508	704.6713	-140.35495	273.47	614.9921	-140.73915	192.015	1196.6689	234.46863	168.948	927.08999	297.68538	254.57	695.4005	327.18156	301.302	623.9717	306.029247	192.591	720.8534	-61.04315	250.93	429.2265	-224.59855	306.036	149.2605	-302.35315	432.661	90.3374	-213.82465	185.962	709.0855	93.99295	95.65	272.365	86.38295	6.812	-2.35	73.41945	178.69	-21.286	83.78525	192.274	1243.0477	50.26325
5	0.266666667	147.394	714.6614	11.08245	156.612	1023.006966	36.52245	175.606	1320.8417	75.82795	193.891	1462.9585	95.92825	171.884	1231.5323	-109.88745	135.489	993.18374	-159.57625	260.006	706.1447	-139.67705	264.351	628.8951	-142.41055	153.13	1203.6454	244.65958	127.35	927.78643	300.68387	223.546	696.5837	332.01245	252.272	621.1646	320.086916	189.085	723.8815	-62.78065	253.863	433.9848	-235.43195	301.307	151.2182	-307.71875	427.316	93.2945	-219.92455	175.586	712.792	92.68655	142.81	381.242	82.36665	17.334	7.962	73.84725	187.347	-13.797	82.44285	168.846	1247.331	65.76795
6	0.333333333	138.964	727.5568	10.45875	142.238	1031.65373	46.00505	156.052	1326.5875	88.51335	187.229	1465.4076	102.65665	164.904	1237.8786	-98.51235	133.879	999.23499	-156.95755	256.67	709.946	-140.81555	259.287	636.4549	-143.98505	144.909	1204.4667	246.21107	96.49	929.54629	302.18212	162.604	693.9877	344.69762	203.881	622.907	330.13691	185.623	738.0939	-64.14965	249.418	453.0199	-222.68275	244.102	270.289	-233.04235	371.199	192.3981	-170.40775	162.125	724.7348	92.63685	89.486	303.4095	87.08285	1.042	-26.166	76.63085	171.522	-39.47	80.84975	150.355	1253.8953	77.77375
